<?xml version="1.0" encoding="utf-8"?><!-- Uploaded to: SVG Repo, www.svgrepo.com, Generator: SVG Repo Mixer Tools -->
<svg fill="#000000" width="800px" height="800px" viewBox="0 0 24 24" id="ruler-7" data-name="Flat Color" xmlns="http://www.w3.org/2000/svg" class="icon flat-color"><path id="primary" d="M22,16v5a1,1,0,0,1-1,1H3a1,1,0,0,1-1-1V3A1,1,0,0,1,3,2H8A1,1,0,0,1,9,3V15H21A1,1,0,0,1,22,16Z" style="fill: rgb(0, 0, 0);"></path><path id="secondary" d="M22,16v5a1,1,0,0,1-1,1H3a1,1,0,0,1-.71-.29L9,15H21A1,1,0,0,1,22,16ZM5,12a1,1,0,0,1-1,1H2V11H4A1,1,0,0,1,5,12ZM5,7A1,1,0,0,1,4,8H2V6H4A1,1,0,0,1,5,7Z" style="fill: rgb(44, 169, 188);"></path><path id="primary-2" data-name="primary" d="M12,19a1,1,0,0,0-1,1v2h2V20A1,1,0,0,0,12,19Zm5,0a1,1,0,0,0-1,1v2h2V20A1,1,0,0,0,17,19Z" style="fill: rgb(0, 0, 0);"></path></svg>